<svg viewBox="0 0 856.4 247.8" xmlns="http://www.w3.org/2000/svg"><g transform="translate(-177.04 -464.28)"><g fill="#fc7924"><path d="m236.81 650.3-29.26-39.63-9.82 12.14-.63 26.84a3.52 3.52 0 0 1 -1 2.56 3.38 3.38 0 0 1 -2.51 1.07h-12.37a3.37 3.37 0 0 1 -2.51-1.07 3.51 3.51 0 0 1 -1-2.56l-.71-34.29v-42.36l.63-76.06a3.52 3.52 0 0 1 1-2.56 3.39 3.39 0 0 1 2.51-1.07h12.33a3.4 3.4 0 0 1 2.51 1.07 3.53 3.53 0 0 1 1 2.56l.75 76.06v16.8l32.6-39a6.5 6.5 0 0 1 5.43-2.77h14.42a3.26 3.26 0 0 1 2.51 1.17 3.9 3.9 0 0 1 1 2.66 3.72 3.72 0 0 1 -.84 2.34l-30.85 38.8a1.45 1.45 0 0 0 -.21 2.13l37 52.2a3.22 3.22 0 0 1 .84 2.34 3.37 3.37 0 0 1 -1.15 2.56 3.73 3.73 0 0 1 -2.61 1.07h-13.21a7.08 7.08 0 0 1 -5.85-3z"/><path d="m369.5 620.05q0 10.66-.42 18.75t-.62 10.2a4.12 4.12 0 0 1 -1.25 3 4.21 4.21 0 0 1 -3.13 1.28h-11.08a3.76 3.76 0 0 1 -2.72-1.28 5 5 0 0 1 -1.46-3l-.21-9.37a.72.72 0 0 0 -.31-.64.56.56 0 0 0 -.73.21q-4.18 6-13 10a40.34 40.34 0 0 1 -16.93 4 50.08 50.08 0 0 1 -25.91-7 51.27 51.27 0 0 1 -18.73-19.12 52.59 52.59 0 0 1 -6.9-26.42 52.63 52.63 0 0 1 25.7-45.48 49.51 49.51 0 0 1 25.88-7.18 48.86 48.86 0 0 1 25.08 6.71 52.46 52.46 0 0 1 18.49 18.11 51.93 51.93 0 0 1 7.63 25.25q.62 11.76.62 21.98zm-36.5 7.67a31 31 0 0 0 11.08-11.5 31.61 31.61 0 0 0 4.08-15.77 30.45 30.45 0 0 0 -4.16-15.66 31.31 31.31 0 0 0 -11.18-11.29 29.56 29.56 0 0 0 -15.36-4.15 28.62 28.62 0 0 0 -15.15 4.26 32.14 32.14 0 0 0 -11.17 11.39 31.42 31.42 0 0 0 0 31.32 32.09 32.09 0 0 0 11.18 11.4 29.82 29.82 0 0 0 30.68 0z"/><path d="m493.84 620.05q0 10.66-.42 18.75t-.62 10.2a4.12 4.12 0 0 1 -1.25 3 4.21 4.21 0 0 1 -3.13 1.28h-11.09a3.76 3.76 0 0 1 -2.72-1.28 5 5 0 0 1 -1.46-3l-.21-9.37a.72.72 0 0 0 -.31-.64.56.56 0 0 0 -.73.21q-4.18 6-13 10a40.34 40.34 0 0 1 -16.93 4 50.08 50.08 0 0 1 -25.91-7 51.27 51.27 0 0 1 -18.81-19.17 52.59 52.59 0 0 1 -6.9-26.42 52.63 52.63 0 0 1 25.7-45.48 49.51 49.51 0 0 1 25.95-7.13 48.86 48.86 0 0 1 25.08 6.71 52.46 52.46 0 0 1 18.49 18.11 51.93 51.93 0 0 1 7.63 25.25q.64 11.76.64 21.98zm-36.47 7.67a31 31 0 0 0 11.08-11.5 31.61 31.61 0 0 0 4.08-15.77 30.45 30.45 0 0 0 -4.18-15.66 31.31 31.31 0 0 0 -11.18-11.29 29.56 29.56 0 0 0 -15.36-4.15 28.62 28.62 0 0 0 -15.15 4.26 32.14 32.14 0 0 0 -11.18 11.39 31.42 31.42 0 0 0 0 31.32 32.09 32.09 0 0 0 11.18 11.4 29.82 29.82 0 0 0 30.72 0z"/><path d="m668.75 649.45a3.89 3.89 0 0 1 -1 2.66 3.47 3.47 0 0 1 -2.72 1.17h-11.7a3.56 3.56 0 0 1 -2.61-1.17 3.69 3.69 0 0 1 -1.15-2.66l-.63-56.67q0-11.71-6.9-18.32a23 23 0 0 0 -16.51-6.6 22.79 22.79 0 0 0 -16.3 6.6q-6.9 6.61-6.9 18.32l-.63 56.67a3.89 3.89 0 0 1 -1 2.66 3.47 3.47 0 0 1 -2.72 1.17h-11.7a3.56 3.56 0 0 1 -2.61-1.17 3.69 3.69 0 0 1 -1.15-2.66l-.84-56.67q0-11.71-6.9-18.32a22.79 22.79 0 0 0 -16.3-6.6 23.14 23.14 0 0 0 -16.4 6.6q-7 6.61-7 18.32l-.63 56.67a3.89 3.89 0 0 1 -1 2.66 3.47 3.47 0 0 1 -2.72 1.17h-11.7a3.56 3.56 0 0 1 -2.61-1.17 3.69 3.69 0 0 1 -1.15-2.66l-.63-59 .21-36.64a3.6 3.6 0 0 1 1.15-2.77 3.74 3.74 0 0 1 2.5-1.04h12.5a3.4 3.4 0 0 1 2.51 1.07 4.46 4.46 0 0 1 1.25 2.56v5.54a24.47 24.47 0 0 1 10.34-8.31 35.05 35.05 0 0 1 14.15-2.86 45 45 0 0 1 18.91 4.26 38.4 38.4 0 0 1 14.94 11.74q11.9-16 32.4-16 14.42 0 24.24 6.28a39.74 39.74 0 0 1 14.73 16.51 50.08 50.08 0 0 1 4.91 21.94z"/></g><path d="m751.92 504.37a54.89 54.89 0 0 1 28 7.14q12.33 7.14 22.57 22.69a3.5 3.5 0 0 1 .63 2.13 3.62 3.62 0 0 1 -1.88 3.41l-11.7 6.82-1.67.43a3.43 3.43 0 0 1 -3.13-1.7 41.51 41.51 0 0 0 -14.74-14.19 39.29 39.29 0 0 0 -19.33-4.79 49.9 49.9 0 0 0 -7.94.64q-11.08 1.71-17.45 7.24t-6.37 12.57q0 8.74 9.4 15.77a39.45 39.45 0 0 0 11.18 6q6.16 2.13 16 4.47a161.17 161.17 0 0 1 18.39 5.11 39.4 39.4 0 0 1 13.27 8.2q6.16 5.65 9.09 15.45a41 41 0 0 1 2.09 12.78 32.16 32.16 0 0 1 -7 20.56 45 45 0 0 1 -18.81 13.63 68.56 68.56 0 0 1 -26 4.79q-36.36 0-53.5-28.76a3.86 3.86 0 0 1 -.63-1.92 3.57 3.57 0 0 1 2.09-3.41l12.1-6.43a3.37 3.37 0 0 1 1.88-.43 3 3 0 0 1 2.72 1.28q13.37 17.9 35.11 17.9 14 0 22-5t8-12.25q0-6.39-6.69-12.14t-19.43-8.52a184.9 184.9 0 0 1 -19-5.43 60.2 60.2 0 0 1 -15.46-8.2 47.88 47.88 0 0 1 -14.31-15.77 37.32 37.32 0 0 1 -4.7-17.9 35.13 35.13 0 0 1 5.12-18.22 44 44 0 0 1 14.73-14.7 60.19 60.19 0 0 1 22.78-8.2 89.11 89.11 0 0 1 12.59-1.05z"/><path d="m921.4 620.05q0 10.66-.42 18.75t-.62 10.2a4.12 4.12 0 0 1 -1.25 3 4.21 4.21 0 0 1 -3.13 1.28h-11.09a3.76 3.76 0 0 1 -2.72-1.28 5 5 0 0 1 -1.46-3l-.21-9.37a.72.72 0 0 0 -.31-.64.56.56 0 0 0 -.73.21q-4.18 6-13 10a40.34 40.34 0 0 1 -16.93 4 50.08 50.08 0 0 1 -25.91-7 51.27 51.27 0 0 1 -18.81-19.17 52.58 52.58 0 0 1 -6.9-26.42 52.62 52.62 0 0 1 25.7-45.48 49.52 49.52 0 0 1 25.97-7.13 48.86 48.86 0 0 1 25.08 6.71 52.46 52.46 0 0 1 18.49 18.11 51.92 51.92 0 0 1 7.63 25.25q.62 11.76.62 21.98zm-36.47 7.67a31 31 0 0 0 11.07-11.5 31.61 31.61 0 0 0 4.08-15.77 30.45 30.45 0 0 0 -4.18-15.66 31.31 31.31 0 0 0 -11.18-11.29 29.56 29.56 0 0 0 -15.36-4.15 28.62 28.62 0 0 0 -15.15 4.26 32.16 32.16 0 0 0 -11.21 11.39 31.43 31.43 0 0 0 0 31.32 32.1 32.1 0 0 0 11.18 11.4 29.82 29.82 0 0 0 30.76 0z"/><path d="m954.21 710.17a4.2 4.2 0 0 1 -.42-4l18.6-52.83-38.45-95.87a3 3 0 0 1 -.21-1.28 3.78 3.78 0 0 1 1-2.77 3.39 3.39 0 0 1 2.51-1.07h13a3.49 3.49 0 0 1 3.34 2.34l30.09 70.09 29.88-70.09a3.62 3.62 0 0 1 3.55-2.34h12.75a3.31 3.31 0 0 1 2.93 1.6 3.91 3.91 0 0 1 .42 3.52l-59.56 151.9a3.76 3.76 0 0 1 -1.57 2 4.71 4.71 0 0 1 -2.61.75h-11.7a4 4 0 0 1 -3.55-1.95z"/><path d="m750.24 464.28c-25.31 0-45.84 22.1-45.84 49.37h91.67c.01-27.26-20.51-49.37-45.83-49.37z" fill="#fc7924"/><g fill="#f7941e"><path d="m739.58 508.24v-33.3c-16.36 1.45-29.19 15.43-29.19 32.48v.82h29.17z"/><path d="m761 508.24h29.17c0-.27 0-.54 0-.82 0-17-12.83-31-29.19-32.48v33.29z"/></g></g><g fill="#f7941e"><path d="m565.34 4.1h3.79v39.75h-3.79z"/><path d="m577.38 4.1h3.79v39.75h-3.79z"/><path d="m571.36 4.1h3.79v39.75h-3.79z"/><path d="m701 518.26h100.3c6.5 0 3.31-10.51-1.89-10.51h-100.25c-6.5 0-3.31 10.51 1.89 10.51z" transform="translate(-177.04 -464.28)"/></g><path d="m265.89 660.16s.78.57 2.27 1.59 3.7 2.45 6.56 4.16 6.35 3.73 10.46 5.81c2 1.08 4.25 2.11 6.55 3.24s4.77 2.22 7.39 3.24c5.16 2.21 10.87 4.24 17 6.15 1.53.44 3.08.91 4.64 1.39s3.18.83 4.79 1.25l2.43.63 2.48.55 5 1.1a197.12 197.12 0 0 0 21.07 2.85c3.6.42 7.26.36 10.91.59.91.06 1.83.06 2.75 0h2.75c1.84 0 3.68 0 5.51-.07l5.51-.28c1.84-.09 3.67-.15 5.5-.39s3.65-.39 5.47-.55c.91-.09 1.82-.15 2.73-.27l2.7-.4c7.21-1 14.28-2.3 21.08-3.85l5.05-1.2c1.67-.41 3.34-.75 4.95-1.25 3.24-.91 6.41-1.84 9.53-2.68s6-2 8.95-2.9c1.45-.47 2.89-.88 4.27-1.39l4.06-1.5 7.67-2.76c2.42-.93 4.68-1.9 6.84-2.74s4.18-1.67 6.07-2.38 3.54-1.54 5.1-2.17c3.07-1.33 5.54-2.31 7.21-3l2.58-1-2.18 1.71c-1.44 1.09-3.53 2.73-6.26 4.73-1.37 1-2.86 2.15-4.56 3.27s-3.56 2.3-5.55 3.58-4.11 2.62-6.38 4l-7.32 4-3.93 2.12c-1.35.71-2.76 1.33-4.18 2-2.85 1.34-5.81 2.72-8.88 4.08s-6.35 2.48-9.64 3.77c-1.63.68-3.35 1.2-5.07 1.74l-5.22 1.66-2.65.84c-.89.28-1.8.48-2.71.71l-5.5 1.37c-3.67 1-7.49 1.6-11.31 2.32l-2.88.52c-1 .16-1.94.26-2.91.39-1.95.25-3.9.48-5.86.7s-3.93.36-5.91.48l-5.94.36c-2 .07-4 0-6 0h-3c-1 0-2 0-3-.08q-3-.16-5.91-.37c-2-.09-3.92-.34-5.86-.58s-3.88-.45-5.79-.72l-5.69-1-2.73-.53-2.77-.65-5.46-1.35-5.3-1.57c-.87-.27-1.75-.5-2.6-.79l-2.54-.91c-1.68-.61-3.35-1.18-5-1.81s-3.21-1.32-4.77-2a140.14 140.14 0 0 1 -17-8.73c-2.54-1.49-4.87-3.09-7.1-4.56s-4.26-3-6.11-4.52a110.23 110.23 0 0 1 -9.28-8.07c-2.46-2.35-4.21-4.39-5.41-5.74s-1.67-2.14-1.67-2.14z" fill="#fc7924" transform="translate(-177.04 -464.28)"/></svg>