<svg viewBox="0 0 855.41 247.8" xmlns="http://www.w3.org/2000/svg"><g fill="#fff"><g transform="translate(-177.52 -464.28)"><path d="m237.22 650.3-29.22-39.62-9.81 12.14-.63 26.84a3.52 3.52 0 0 1 -1 2.56 3.38 3.38 0 0 1 -2.5 1.07h-12.36a3.37 3.37 0 0 1 -2.5-1.07 3.51 3.51 0 0 1 -1-2.56l-.63-34.3v-42.36l.63-76.06a3.52 3.52 0 0 1 1-2.56 3.38 3.38 0 0 1 2.5-1.07h12.3a3.39 3.39 0 0 1 2.5 1.07 3.53 3.53 0 0 1 1 2.56l.69 76.06v16.8l32.56-39a6.49 6.49 0 0 1 5.43-2.77h14.4a3.26 3.26 0 0 1 2.5 1.17 3.9 3.9 0 0 1 1 2.66 3.72 3.72 0 0 1 -.83 2.34l-30.85 38.8a1.45 1.45 0 0 0 -.21 2.13l36.95 52.2a3.22 3.22 0 0 1 .83 2.34 3.37 3.37 0 0 1 -1.15 2.56 3.73 3.73 0 0 1 -2.61 1.07h-13.14a7.07 7.07 0 0 1 -5.85-3z"/><path d="m369.77 620.05q0 10.66-.42 18.75t-.62 10.2a4.13 4.13 0 0 1 -1.25 3 4.2 4.2 0 0 1 -3.13 1.28h-11.07a3.75 3.75 0 0 1 -2.71-1.28 5 5 0 0 1 -1.46-3l-.21-9.37a.72.72 0 0 0 -.31-.64.56.56 0 0 0 -.73.21q-4.18 6-12.94 10a40.25 40.25 0 0 1 -16.91 4 50 50 0 0 1 -25.88-7 51.23 51.23 0 0 1 -18.79-19.17 52.63 52.63 0 0 1 -6.89-26.42 52.64 52.64 0 0 1 25.67-45.48 49.42 49.42 0 0 1 25.88-7.13 48.76 48.76 0 0 1 25 6.71 52.55 52.55 0 0 1 26.09 43.35q.68 11.77.68 21.99zm-36.42 7.67a31 31 0 0 0 11.06-11.5 31.63 31.63 0 0 0 4.07-15.77 30.47 30.47 0 0 0 -4.17-15.66 31.29 31.29 0 0 0 -11.17-11.29 29.5 29.5 0 0 0 -15.34-4.15 28.57 28.57 0 0 0 -15.13 4.26 32.13 32.13 0 0 0 -11.18 11.39 31.45 31.45 0 0 0 0 31.32 32.06 32.06 0 0 0 11.17 11.4 29.75 29.75 0 0 0 30.69 0z"/><path d="m494 620.05q0 10.66-.42 18.75t-.66 10.2a4.13 4.13 0 0 1 -1.25 3 4.2 4.2 0 0 1 -3.13 1.28h-11.06a3.75 3.75 0 0 1 -2.71-1.28 5 5 0 0 1 -1.46-3l-.21-9.37a.72.72 0 0 0 -.31-.64.56.56 0 0 0 -.73.21q-4.18 6-12.94 10a40.25 40.25 0 0 1 -16.91 4 50 50 0 0 1 -25.88-7 51.23 51.23 0 0 1 -18.79-19.17 52.63 52.63 0 0 1 -6.89-26.42 52.64 52.64 0 0 1 25.67-45.48 49.42 49.42 0 0 1 25.88-7.13 48.76 48.76 0 0 1 25 6.71 52.55 52.55 0 0 1 26.09 43.35q.71 11.77.71 21.99zm-36.42 7.67a31 31 0 0 0 11.06-11.5 31.63 31.63 0 0 0 4.07-15.77 30.47 30.47 0 0 0 -4.17-15.66 31.29 31.29 0 0 0 -11.17-11.29 29.5 29.5 0 0 0 -15.37-4.15 28.57 28.57 0 0 0 -15.13 4.26 32.13 32.13 0 0 0 -11.18 11.39 31.45 31.45 0 0 0 0 31.32 32.06 32.06 0 0 0 11.17 11.4 29.75 29.75 0 0 0 30.68 0z"/><path d="m668.67 649.45a3.89 3.89 0 0 1 -1 2.66 3.47 3.47 0 0 1 -2.71 1.17h-11.73a3.56 3.56 0 0 1 -2.61-1.17 3.7 3.7 0 0 1 -1.15-2.66l-.63-56.67q0-11.71-6.89-18.32a23 23 0 0 0 -16.49-6.6 22.75 22.75 0 0 0 -16.28 6.6q-6.89 6.61-6.89 18.32l-.63 56.67a3.89 3.89 0 0 1 -1 2.66 3.47 3.47 0 0 1 -2.71 1.17h-11.73a3.55 3.55 0 0 1 -2.61-1.17 3.7 3.7 0 0 1 -1.15-2.66l-.83-56.67q0-11.71-6.89-18.32a22.75 22.75 0 0 0 -16.28-6.6 23.1 23.1 0 0 0 -16.39 6.6q-7 6.61-7 18.32l-.63 56.67a3.89 3.89 0 0 1 -1 2.66 3.47 3.47 0 0 1 -2.71 1.17h-11.73a3.55 3.55 0 0 1 -2.61-1.17 3.7 3.7 0 0 1 -1.15-2.66l-.63-59 .21-36.64a3.61 3.61 0 0 1 1.18-2.81 3.73 3.73 0 0 1 2.61-1.07h12.52a3.39 3.39 0 0 1 2.5 1.07 4.47 4.47 0 0 1 1.25 2.56v5.54a24.45 24.45 0 0 1 10.33-8.31 35 35 0 0 1 14.09-2.79 44.92 44.92 0 0 1 18.89 4.26 38.37 38.37 0 0 1 14.92 11.74q11.9-16 32.35-16 14.4 0 24.21 6.29a39.73 39.73 0 0 1 14.72 16.51 50.12 50.12 0 0 1 4.91 21.94z"/><path d="m751.75 504.37a54.77 54.77 0 0 1 28 7.14q12.31 7.14 22.54 22.69a3.51 3.51 0 0 1 .63 2.13 3.62 3.62 0 0 1 -1.88 3.41l-11.69 6.82-1.67.43a3.43 3.43 0 0 1 -3.13-1.7 41.47 41.47 0 0 0 -14.72-14.17 39.2 39.2 0 0 0 -19.31-4.79 49.74 49.74 0 0 0 -7.93.64q-11.07 1.71-17.43 7.24t-6.37 12.57q0 8.74 9.39 15.76a39.39 39.39 0 0 0 11.17 6q6.16 2.13 16 4.47a160.66 160.66 0 0 1 18.37 5.11 39.34 39.34 0 0 1 13.25 8.2q6.16 5.65 9.08 15.45a41 41 0 0 1 2.09 12.78 32.18 32.18 0 0 1 -7 20.56 44.93 44.93 0 0 1 -18.79 13.63 68.41 68.41 0 0 1 -26 4.79q-36.32 0-53.44-28.76a3.86 3.86 0 0 1 -.63-1.92 3.57 3.57 0 0 1 2.09-3.41l12.08-6.44a3.37 3.37 0 0 1 1.88-.43 3 3 0 0 1 2.71 1.28q13.35 17.9 35.07 17.9 14 0 22-5t8-12.25q0-6.39-6.68-12.14t-19.41-8.52a184.65 184.65 0 0 1 -19-5.43 60.13 60.13 0 0 1 -15.45-8.2 47.85 47.85 0 0 1 -14.3-15.77 37.35 37.35 0 0 1 -4.7-17.9 35.16 35.16 0 0 1 5.11-18.21 44 44 0 0 1 14.72-14.7 60.07 60.07 0 0 1 22.75-8.2 88.93 88.93 0 0 1 12.6-1.06z"/><path d="m921 620.05q0 10.66-.42 18.75t-.58 10.2a4.12 4.12 0 0 1 -1.25 3 4.2 4.2 0 0 1 -3.13 1.28h-11.08a3.75 3.75 0 0 1 -2.71-1.28 5 5 0 0 1 -1.46-3l-.21-9.37a.72.72 0 0 0 -.31-.64.56.56 0 0 0 -.73.21q-4.18 6-12.94 10a40.25 40.25 0 0 1 -16.91 4 50 50 0 0 1 -25.88-7 51.22 51.22 0 0 1 -18.79-19.17 52.63 52.63 0 0 1 -6.89-26.42 52.64 52.64 0 0 1 25.67-45.48 49.41 49.41 0 0 1 25.89-7.13 48.77 48.77 0 0 1 25 6.71 52.56 52.56 0 0 1 26.09 43.35q.64 11.77.64 21.99zm-36.42 7.67a31 31 0 0 0 11.06-11.5 31.63 31.63 0 0 0 4.07-15.77 30.47 30.47 0 0 0 -4.17-15.66 31.3 31.3 0 0 0 -11.14-11.29 29.5 29.5 0 0 0 -15.34-4.15 28.57 28.57 0 0 0 -15.13 4.26 32.13 32.13 0 0 0 -11.17 11.39 31.46 31.46 0 0 0 0 31.32 32.07 32.07 0 0 0 11.17 11.4 29.75 29.75 0 0 0 30.68 0z"/><path d="m953.8 710.17a4.21 4.21 0 0 1 -.42-4l18.62-52.88-38.41-95.87a3 3 0 0 1 -.21-1.28 3.78 3.78 0 0 1 1-2.77 3.38 3.38 0 0 1 2.5-1.06h12.94a3.48 3.48 0 0 1 3.34 2.34l30.06 70.09 29.85-70.09a3.62 3.62 0 0 1 3.55-2.34h12.73a3.3 3.3 0 0 1 2.92 1.6 3.91 3.91 0 0 1 .42 3.52l-59.49 151.9a3.76 3.76 0 0 1 -1.57 2 4.7 4.7 0 0 1 -2.61.75h-11.67a4 4 0 0 1 -3.55-1.91z"/><path d="m750.07 464.28c-25.29 0-45.78 22.1-45.78 49.37h91.57c0-27.26-20.5-49.37-45.79-49.37z"/><path d="m739.42 508.24v-33.3c-16.34 1.45-29.16 15.43-29.16 32.48v.82h29.14z"/><path d="m760.82 508.24h29.18c0-.27 0-.54 0-.82 0-17-12.82-31-29.16-32.48v33.29z"/></g><path d="m564.69 4.1h3.79v39.75h-3.79z"/><path d="m576.72 4.1h3.79v39.75h-3.79z"/><path d="m570.7 4.1h3.79v39.75h-3.79z"/><g transform="translate(-177.52 -464.28)"><path d="m700.94 518.26h100.18c6.5 0 3.31-10.5-1.89-10.5h-100.23c-6.5 0-3.31 10.5 1.89 10.5z"/><path d="m266.27 660.16s.78.57 2.26 1.59 3.69 2.45 6.55 4.16 6.34 3.73 10.44 5.81c2 1.08 4.24 2.11 6.54 3.24s4.76 2.22 7.38 3.24c5.15 2.21 10.86 4.24 16.93 6.15 1.53.44 3.07.91 4.63 1.39s3.18.83 4.79 1.25l2.43.63 2.48.55 5 1.1a196.6 196.6 0 0 0 21.05 2.85c3.59.42 7.25.36 10.9.59.91.06 1.83.06 2.75 0h2.75c1.84 0 3.67 0 5.51-.07l5.51-.28c1.84-.09 3.67-.15 5.49-.39s3.65-.39 5.47-.55c.91-.09 1.82-.15 2.72-.27l2.7-.4c7.2-1 14.26-2.3 21.06-3.85l5-1.2c1.66-.41 3.33-.75 4.94-1.25 3.24-.91 6.41-1.84 9.52-2.68s6-2 8.94-2.9c1.45-.47 2.89-.88 4.27-1.39l4.06-1.5 7.66-2.76c2.42-.93 4.67-1.9 6.84-2.74s4.17-1.67 6.06-2.38 3.54-1.54 5.09-2.17c3.07-1.33 5.54-2.31 7.2-3l2.58-1-2.18 1.71c-1.44 1.08-3.53 2.73-6.26 4.73-1.36 1-2.85 2.14-4.55 3.27s-3.56 2.3-5.54 3.58-4.11 2.62-6.37 4l-7.31 4-3.93 2.12c-1.34.71-2.76 1.33-4.18 2-2.85 1.34-5.81 2.72-8.87 4.08s-6.34 2.48-9.63 3.77c-1.63.68-3.35 1.2-5.07 1.75l-5.21 1.66-2.64.84c-.89.28-1.8.48-2.71.71l-5.49 1.37c-3.66 1-7.48 1.6-11.3 2.32l-2.87.52c-1 .16-1.94.26-2.91.39-1.94.25-3.9.48-5.85.7s-3.93.36-5.9.48l-5.93.36c-2 .07-4 0-5.95 0h-3c-1 0-2 0-3-.08q-3-.16-5.91-.37c-2-.09-3.91-.34-5.85-.58s-3.87-.45-5.79-.72l-5.68-1-2.81-.52-2.77-.65-5.31-1.37-5.29-1.57c-.87-.27-1.75-.5-2.6-.79l-2.53-.91c-1.68-.61-3.34-1.18-5-1.81s-3.2-1.32-4.76-2a140 140 0 0 1 -16.93-8.73c-2.54-1.48-4.87-3.09-7.09-4.56s-4.26-3-6.1-4.52a110.07 110.07 0 0 1 -9.27-8.07c-2.46-2.34-4.2-4.39-5.4-5.74s-1.76-2.14-1.76-2.14z"/></g></g></svg>